<?xml version="1.0" encoding="UTF-8"?>
<svg width="344px" height="353px" viewBox="0 0 344 353" version="1.1" xmlns="http://www.w3.org/2000/svg" xmlns:xlink="http://www.w3.org/1999/xlink">
    <title>icon</title>
    <g id="Page-1" stroke="none" stroke-width="1" fill="none" fill-rule="evenodd">
        <g id="icon" transform="translate(16.0297, 15.3308)" fill="#17374E" fill-rule="nonzero" stroke-width="22.2270212">
            <g id="Group" transform="translate(155.9703, 161.1692) rotate(20) translate(-155.9703, -161.1692)translate(36.6025, 33.1028)">
                <path d="M128.952903,18.8773848 L20.304127,149.122154 C20.0564822,149.419023 20.0963862,149.860439 20.393255,150.108084 C20.5190958,150.213059 20.6777786,150.270555 20.8416556,150.270555 L118.574691,150.270555 C118.96129,150.270555 119.274691,150.583956 119.274691,150.970555 C119.274691,150.99961 119.272882,151.028637 119.269274,151.057467 L108.550463,236.719978 C108.502463,237.103585 108.774527,237.453473 109.158135,237.501473 C109.394618,237.531064 109.629909,237.438302 109.782575,237.25529 L218.431351,107.01052 C218.678996,106.713652 218.639092,106.272236 218.342223,106.024591 C218.216382,105.919616 218.0577,105.86212 217.893823,105.86212 L120.160788,105.86212 C119.774188,105.86212 119.460788,105.548719 119.460788,105.16212 C119.460788,105.133065 119.462597,105.104038 119.466204,105.075208 L130.185015,19.4126974 C130.233015,19.0290895 129.960951,18.679202 129.577343,18.6312018 C129.34086,18.601611 129.105569,18.6943734 128.952903,18.8773848 Z" id="Path" stroke="#85FF6D" stroke-linejoin="round"></path>
                <path d="M129.389573,18.3539177 L20.0304175,149.450269 C19.8535284,149.662318 19.8820312,149.977615 20.0940804,150.154504 C20.1839667,150.229486 20.2973115,150.270555 20.4143665,150.270555 L118.801276,150.270555 C119.077418,150.270555 119.301276,150.494413 119.301276,150.770555 C119.301276,150.791309 119.299984,150.812042 119.297407,150.832635 L108.465825,237.396391 C108.431539,237.670397 108.62587,237.920316 108.899876,237.954602 C109.068793,237.975739 109.236858,237.90948 109.345905,237.778757 L218.705061,106.682406 C218.88195,106.470357 218.853447,106.15506 218.641398,105.978171 C218.551512,105.903189 218.438167,105.86212 218.321112,105.86212 L119.934202,105.86212 C119.65806,105.86212 119.434202,105.638262 119.434202,105.36212 C119.434202,105.341366 119.435495,105.320633 119.438071,105.30004 L130.269653,18.7362839 C130.303939,18.4622783 130.109608,18.2123586 129.835602,18.1780727 C129.666686,18.1569364 129.498621,18.2231953 129.389573,18.3539177 Z" id="Path" stroke="#17374E" transform="translate(119.3677, 128.0663) rotate(11) translate(-119.3677, -128.0663)"></path>
            </g>
        </g>
    </g>
</svg>