<svg width="227" height="223" viewBox="0 0 227 223" xmlns="http://www.w3.org/2000/svg">
  <g transform="translate(-43, -50)" fill="none" stroke-width="22">
    <g transform="translate(155.97, 161.17) rotate(20) translate(-155.97, -161.17) translate(36.6, 33.1)">
      <path d="M128.95 18.88L20.3 149.12C20.06 149.42 20.1 149.86 20.39 150.11C20.52 150.21 20.68 150.27 20.84 150.27H118.57C118.96 150.27 119.27 150.58 119.27 150.97C119.27 151 119.27 151.03 119.27 151.06L108.55 236.72C108.5 237.1 108.77 237.45 109.16 237.5C109.39 237.53 109.63 237.44 109.78 237.26L218.43 107.01C218.68 106.71 218.64 106.27 218.34 106.02C218.22 105.92 218.06 105.86 217.89 105.86H120.16C119.77 105.86 119.46 105.55 119.46 105.16C119.46 105.13 119.46 105.1 119.47 105.07L130.19 19.41C130.23 19.03 129.96 18.68 129.58 18.63C129.34 18.6 129.11 18.69 128.95 18.88Z" stroke="#424242" stroke-linejoin="round"/>
      <path d="M129.39 18.35L20.03 149.45C19.85 149.66 19.88 149.98 20.09 150.15C20.18 150.23 20.3 150.27 20.41 150.27H118.8C119.08 150.27 119.3 150.49 119.3 150.77C119.3 150.79 119.3 150.81 119.3 150.83L108.47 237.4C108.43 237.67 108.63 237.92 108.9 237.95C109.07 237.98 109.24 237.91 109.35 237.78L218.71 106.68C218.88 106.47 218.85 106.16 218.64 105.98C218.55 105.9 218.44 105.86 218.32 105.86H119.93C119.66 105.86 119.43 105.64 119.43 105.36C119.43 105.34 119.44 105.32 119.44 105.3L130.27 18.74C130.3 18.46 130.11 18.21 129.84 18.18C129.67 18.16 129.5 18.22 129.39 18.35Z" stroke="#212121" stroke-linejoin="round" transform="translate(119.37, 128.07) rotate(11) translate(-119.37, -128.07)"/>
    </g>
  </g>
</svg>